# xmcd CD database file
#
# Track frame offsets:
#	225
#	13734
#	33970
#	70080
#	100962
#	126374
#	151687
#	171837
#	193022
#	217781
#	238267
#
# Disc length: 3377 seconds
#
# Revision: 0
# Processed by: cddbd v1.5.2PL0 Copyright (c) Steve Scherf et al.
# Submitted via: CDex 1.51
#
DISCID=8f0d2e0b
DTITLE=Stable Roof Jazzband - Ramblin' around
DYEAR=2001
DGENRE=Jazz
TTITLE0=Take Me Back To New Orleans
TTITLE1=Liza
TTITLE2=Flee As A Bird - Oh Didn't He Ramble
TTITLE3=Things Ain't What They Used to Be
TTITLE4=Just A Closer Walk With Thee
TTITLE5=What A Friend We Have In Jesus
TTITLE6=Choo Choo Ch'Boogie
TTITLE7=Mood Indigo
TTITLE8=You Rascal You
TTITLE9=Goin'  Home
TTITLE10=That's My Home
EXTD=YEAR: 2001
EXTT0=
EXTT1=
EXTT2=
EXTT3=
EXTT4=
EXTT5=
EXTT6=
EXTT7=
EXTT8=
EXTT9=
EXTT10=
PLAYORDER=
